<?xml version="1.0" ?><svg id="object" viewBox="0 0 32 32" xmlns="http://www.w3.org/2000/svg"><defs><style>.cls-1{fill:#97c1ff;}.cls-2{fill:#82bce4;}.cls-3{fill:#c9c1f5;}.cls-4{fill:#afbdd6;}.cls-5{fill:#96d7ff;}.cls-6{fill:#86c3ef;}</style></defs><title/><path class="cls-1" d="M15.39,15.44l-2.83-2.83a1,1,0,0,0-1.41,0L8.32,15.44a1,1,0,0,0,0,1.41l2.83,2.83a1,1,0,0,0,.71.29,1,1,0,0,0,.7-.29l2.83-2.83a1,1,0,0,0,.3-.71A1,1,0,0,0,15.39,15.44Z"/><path class="cls-1" d="M26.71,4.12,23.88,1.29A1,1,0,0,0,23.17,1a1.05,1.05,0,0,0-.71.29L19.64,4.12a1,1,0,0,0-.3.71,1,1,0,0,0,.3.71l2.82,2.82a1,1,0,0,0,.71.3,1,1,0,0,0,.71-.3l2.83-2.82A1,1,0,0,0,26.71,4.12Z"/><path class="cls-2" d="M26.71,4.12,23.88,1.29A1,1,0,0,0,23.17,1a1.05,1.05,0,0,0-.71.29L19.64,4.12a1,1,0,0,0-.3.71,1,1,0,0,0,.3.71l2.82,2.82a1,1,0,0,0,.71.3,1,1,0,0,0,.71-.3l2.83-2.82A1,1,0,0,0,26.71,4.12Z"/><path class="cls-3" d="M20,30.44a1,1,0,0,1,0-2,9,9,0,0,0,0-18,1,1,0,0,1,0-2,11,11,0,0,1,0,22Z"/><path class="cls-4" d="M20,30.44a1,1,0,0,1,0-2,9,9,0,0,0,0-18,1,1,0,0,1,0-2,11,11,0,0,1,0,22Z"/><path class="cls-5" d="M24.59,7.66,20.34,3.41a1,1,0,0,0-1.41,0L10.44,11.9a1,1,0,0,0-.29.71,1,1,0,0,0,.29.7l4.25,4.25a1,1,0,0,0,1.41,0l8.49-8.49a1,1,0,0,0,.29-.71A1,1,0,0,0,24.59,7.66Z"/><path class="cls-5" d="M30,25H6a1,1,0,0,0-.71.29l-4,4a1,1,0,0,0-.21,1.09A1,1,0,0,0,2,31H30a1,1,0,0,0,1-1V26A1,1,0,0,0,30,25Z"/><path class="cls-6" d="M24.88,8.36a1,1,0,0,1-.29.71l-.25.25-1.56,1.57L16.1,17.56l-.1.09V6.34l2.93-2.93a1,1,0,0,1,1.41,0l4.25,4.25A1,1,0,0,1,24.88,8.36Z"/><path class="cls-6" d="M31,26v4a1,1,0,0,1-1,1H16V25H30A1,1,0,0,1,31,26Z"/></svg>