<?xml version="1.0" ?><svg id="Layer_1" style="enable-background:new 0 0 512 512;" version="1.1" viewBox="0 0 512 512" xml:space="preserve" xmlns="http://www.w3.org/2000/svg" xmlns:xlink="http://www.w3.org/1999/xlink"><style type="text/css">
	.st0{fill:#F9F96E;stroke:#231F20;stroke-width:10;stroke-miterlimit:10;}
	.st1{fill:#D7F3F7;stroke:#231F20;stroke-width:10;stroke-miterlimit:10;}
</style><g id="XMLID_405_"><g id="XMLID_426_"><path class="st0" d="M165.5,8.5H55.4c-3.4,0-6.2,2.8-6.2,6.2v13.8c0,3.4,2.8,6.2,6.2,6.2h0c3.4,0,6.2,2.8,6.2,6.2    v456.6c0,3.4,2.8,6.2,6.2,6.2h85.5c3.4,0,6.2-2.8,6.2-6.2V40.7c0-3.4,2.8-6.2,6.2-6.2l0,0c3.4,0,6.2-2.8,6.2-6.2V14.7    C171.6,11.3,168.9,8.5,165.5,8.5z" id="XMLID_403_"/><path class="st1" d="M63.4,292.1c-1.6,2.6-1.7,6.2-1.8,9.9c-0.2,8.4,0,16.7,0,25.1c0,24.3,0,48.5,0,72.8    c0,32.5,0,65,0,97.5c0,3.4,2.8,6.2,6.2,6.2h85.5c3.4,0,6.2-2.8,6.2-6.2c0-30.7,0-61.4,0-92.2c0-22.9,0-45.8,0-68.7    c0-13.6,2-29,0-42.5c-2.5-17.1-36.4-17.4-49-13c-4.6,1.6-8.9,3.9-13.6,5.4c-9.4,3.1-19.2,0-28.3,2.2    C66,289.3,64.4,290.5,63.4,292.1z" id="XMLID_457_"/></g><g id="XMLID_425_"><path class="st0" d="M310.3,8.5H200.2c-3.4,0-6.2,2.8-6.2,6.2v13.8c0,3.4,2.8,6.2,6.2,6.2h0    c3.4,0,6.2,2.8,6.2,6.2v456.6c0,3.4,2.8,6.2,6.2,6.2H298c3.4,0,6.2-2.8,6.2-6.2V40.7c0-3.4,2.8-6.2,6.2-6.2l0,0    c3.4,0,6.2-2.8,6.2-6.2V14.7C316.5,11.3,313.7,8.5,310.3,8.5z" id="XMLID_400_"/><path class="st1" d="M206.7,291c-0.6,2.7-0.3,5.6-0.3,8.5c0,7.4,0,14.9,0,22.3c0,22.7,0,45.4,0,68.1    c0,35.7,0,71.3,0,107c0,0.2,0,0.3,0,0.5c0,3.4,2.8,6.2,6.2,6.2H298c3.4,0,6.2-2.8,6.2-6.2c0-29.7,0-59.4,0-89    c0-22.6,0-45.2,0-67.8c0-14.7,1.2-30,0-44.7c-0.8-8.9-9.2-7.5-17.3-7.3c-9.4,0.2-18.6-2.5-27.6-5.2c-9-2.7-18.1-5.5-27.5-5.4    c-7.6,0.1-18.5,2.5-23.3,9.1C207.6,288.3,207,289.6,206.7,291z" id="XMLID_439_"/></g><g id="XMLID_399_"><path class="st0" d="M456.6,8.5H346.5c-3.4,0-6.2,2.8-6.2,6.2v13.8c0,3.4,2.8,6.2,6.2,6.2h0    c3.4,0,6.2,2.8,6.2,6.2v456.6c0,3.4,2.8,6.2,6.2,6.2h85.5c3.4,0,6.2-2.8,6.2-6.2V40.7c0-3.4,2.8-6.2,6.2-6.2l0,0    c3.4,0,6.2-2.8,6.2-6.2V14.7C462.8,11.3,460,8.5,456.6,8.5z" id="XMLID_404_"/><path class="st1" d="M353,291c-0.6,2.7-0.3,5.6-0.3,8.5c0,7.4,0,14.9,0,22.3c0,22.7,0,45.4,0,68.1    c0,35.7,0,71.3,0,107c0,0.2,0,0.3,0,0.5c0,3.4,2.8,6.2,6.2,6.2h85.5c3.4,0,6.2-2.8,6.2-6.2c0-29.7,0-59.4,0-89    c0-22.6,0-45.2,0-67.8c0-14.7,1.2-30,0-44.7c-0.8-8.9-9.2-7.5-17.3-7.3c-9.4,0.2-18.6-2.5-27.6-5.2c-9-2.7-18.1-5.5-27.5-5.4    c-7.6,0.1-18.5,2.5-23.3,9.1C353.9,288.3,353.3,289.6,353,291z" id="XMLID_401_"/></g></g></svg>