<?xml version="1.0" ?><svg id="Layer_1" style="enable-background:new 0 0 512 512;" version="1.1" viewBox="0 0 512 512" xml:space="preserve" xmlns="http://www.w3.org/2000/svg" xmlns:xlink="http://www.w3.org/1999/xlink"><style type="text/css">
	.st0{fill:#E6E6E6;}
	.st1{fill:#FFB000;}
	.st2{fill:#4D5152;}
</style><g><polygon class="st0" points="213.2,70.1 266,70.1 266,60.1 319.3,60.1 319.3,30 192.7,30 192.7,60.1 213.2,60.1  "/><path class="st1" d="M246,194h20v10h32.8v235.2c0,23.6-19.2,42.8-42.8,42.8s-42.8-19.2-42.8-42.8V204H246V194z"/><g><path class="st2" d="M172.7,10v70.1h20.5v359.1c0,34.6,28.2,62.8,62.8,62.8s62.8-28.2,62.8-62.8V80.1h20.5V10H172.7z M319.3,60.1    H266v20h32.8V184H266v20h32.8v235.2c0,23.6-19.2,42.8-42.8,42.8s-42.8-19.2-42.8-42.8V204H246v-20h-32.8V60.1h-20.5V30h126.7V60.1    z"/><rect class="st2" height="20" width="20" x="226" y="60.1"/><rect class="st2" height="20" width="20" x="226" y="243"/><rect class="st2" height="78.5" width="20" x="226" y="283"/><rect class="st2" height="20" width="20" x="266" y="420.8"/><rect class="st2" height="78.5" width="20" x="266" y="322.3"/></g></g></svg>