<?xml version="1.0" ?><svg data-name="Layer 2" id="Layer_2" viewBox="0 0 2050 2050" xmlns="http://www.w3.org/2000/svg"><defs><style>.cls-1{fill:#67baeb;}.cls-2{fill:#46a1f8;}.cls-3{fill:#323150;}.cls-4{fill:#83d0fb;}.cls-5{fill:#de3226;}.cls-6{fill:#b11a31;}.cls-7{fill:#f44533;}.cls-8{fill:#f4c23f;}.cls-9{fill:#f4a93f;}.cls-10{fill:#4d4c78;}.cls-11{fill:#64639c;}.cls-12{fill:#fad564;}</style></defs><title/><path class="cls-1" d="M1024.5,1581h0a128,128,0,0,1-128-127.9v-580c90.3,47.5,178.2-50.6,255.9,0v580A127.9,127.9,0,0,1,1024.5,1581Z"/><path class="cls-2" d="M1082.7,1538.3h0a128,128,0,0,1-128-127.9V886.5c-19.2.3-38.7-3.1-58.2-13.4v580a128,128,0,0,0,128,127.9h0a127.7,127.7,0,0,0,101.6-50.2A127.3,127.3,0,0,1,1082.7,1538.3Z"/><path class="cls-3" d="M1028.7,1616.7c-83.5,0-151.4-67.9-151.4-151.4V284.5a19.9,19.9,0,0,1,20-20h262.8a19.9,19.9,0,0,1,20,20V1465.3C1180.1,1548.8,1112.2,1616.7,1028.7,1616.7ZM917.3,304.5V1465.3a111.4,111.4,0,1,0,222.8,0V304.5Z"/><path class="cls-3" d="M1192.9,304.5H864.5a57.9,57.9,0,0,1,0-115.8h328.4a57.9,57.9,0,0,1,0,115.8ZM864.5,228.7a17.9,17.9,0,0,0,0,35.8h328.4a17.9,17.9,0,0,0,0-35.8Z"/><path class="cls-3" d="M1151.3,444.9h-69.2a20,20,0,0,1,0-40h69.2a20,20,0,0,1,0,40Z"/><path class="cls-3" d="M1151.3,616.8h-69.2a20,20,0,0,1,0-40h69.2a20,20,0,0,1,0,40Z"/><path class="cls-3" d="M1151.3,788.7h-69.2a20,20,0,0,1,0-40h69.2a20,20,0,0,1,0,40Z"/><path class="cls-3" d="M1151.3,960.6h-69.2a20,20,0,0,1,0-40h69.2a20,20,0,0,1,0,40Z"/><path class="cls-3" d="M1151.3,1132.5h-69.2a20,20,0,0,1,0-40h69.2a20,20,0,1,1,0,40Z"/><path class="cls-3" d="M1151.3,1304.3h-69.2a20,20,0,0,1,0-40h69.2a20,20,0,0,1,0,40Z"/><path class="cls-3" d="M1151.3,1476.2h-69.2a20,20,0,0,1,0-40h69.2a20,20,0,0,1,0,40Z"/><circle class="cls-2" cx="1030.6" cy="1332.3" r="19.3"/><circle class="cls-2" cx="996.7" cy="1147.1" r="14.6"/><circle class="cls-2" cx="1078.5" cy="1042" r="28.7"/><circle class="cls-4" cx="1037.2" cy="981" r="12.7"/><circle class="cls-4" cx="1073.4" cy="1213.7" r="23.5"/><circle class="cls-4" cx="998.1" cy="1235.2" r="8.1"/><circle class="cls-4" cx="994.2" cy="1454.4" r="12.1"/><path class="cls-5" d="M546.2,1581h0a127.9,127.9,0,0,1-127.9-127.9v-580c90.3,47.5,178.1-50.6,255.9,0v580A128,128,0,0,1,546.2,1581Z"/><path class="cls-6" d="M604.4,1538.3h0a127.9,127.9,0,0,1-127.9-127.9V886.5c-19.3.3-38.7-3.1-58.2-13.4v580A127.9,127.9,0,0,0,546.2,1581h0a127.8,127.8,0,0,0,101.7-50.2A127.8,127.8,0,0,1,604.4,1538.3Z"/><path class="cls-3" d="M550.5,1616.7c-83.5,0-151.5-67.9-151.5-151.4V284.5a20,20,0,0,1,20-20H681.9a20,20,0,0,1,20,20V1465.3C701.9,1548.8,633.9,1616.7,550.5,1616.7ZM439,304.5V1465.3c0,61.4,50,111.4,111.5,111.4a111.6,111.6,0,0,0,111.4-111.4V304.5Z"/><path class="cls-3" d="M714.6,304.5H386.3a57.9,57.9,0,0,1,0-115.8H714.6a57.9,57.9,0,0,1,0,115.8ZM386.3,228.7a17.9,17.9,0,0,0,0,35.8H714.6a17.9,17.9,0,0,0,0-35.8Z"/><path class="cls-3" d="M673.1,444.9H603.9a20,20,0,0,1,0-40h69.2a20,20,0,0,1,0,40Z"/><path class="cls-3" d="M673.1,616.8H603.9a20,20,0,1,1,0-40h69.2a20,20,0,1,1,0,40Z"/><path class="cls-3" d="M673.1,788.7H603.9a20,20,0,1,1,0-40h69.2a20,20,0,1,1,0,40Z"/><path class="cls-3" d="M673.1,960.6H603.9a20,20,0,0,1,0-40h69.2a20,20,0,0,1,0,40Z"/><path class="cls-3" d="M673.1,1132.5H603.9a20,20,0,0,1,0-40h69.2a20,20,0,0,1,0,40Z"/><path class="cls-3" d="M673.1,1304.3H603.9a20,20,0,1,1,0-40h69.2a20,20,0,1,1,0,40Z"/><path class="cls-3" d="M673.1,1476.2H603.9a20,20,0,1,1,0-40h69.2a20,20,0,1,1,0,40Z"/><circle class="cls-6" cx="552.4" cy="1332.3" r="19.3"/><circle class="cls-6" cx="518.5" cy="1147.1" r="14.6"/><circle class="cls-6" cx="600.3" cy="1042" r="28.7"/><circle class="cls-7" cx="558.9" cy="981" r="12.7"/><circle class="cls-7" cx="595.2" cy="1213.7" r="23.5"/><circle class="cls-7" cx="519.9" cy="1235.2" r="8.1"/><circle class="cls-7" cx="515.9" cy="1454.4" r="12.1"/><path class="cls-8" d="M1502.7,1581h0a128,128,0,0,1-128-127.9v-580c90.3,47.5,178.2-50.6,256,0v580A128,128,0,0,1,1502.7,1581Z"/><path class="cls-9" d="M1560.9,1538.3h0a128,128,0,0,1-128-127.9V886.5c-19.2.3-38.6-3.1-58.2-13.4v580a128,128,0,0,0,128,127.9h0a127.8,127.8,0,0,0,101.7-50.2A127.8,127.8,0,0,1,1560.9,1538.3Z"/><path class="cls-3" d="M1506.9,1616.7c-83.5,0-151.4-67.9-151.4-151.4V284.5a20,20,0,0,1,20-20h262.8a19.9,19.9,0,0,1,20,20V1465.3C1658.3,1548.8,1590.4,1616.7,1506.9,1616.7ZM1395.5,304.5V1465.3a111.4,111.4,0,1,0,222.8,0V304.5Z"/><path class="cls-3" d="M1671.1,304.5H1342.8a57.9,57.9,0,1,1,0-115.8h328.3a57.9,57.9,0,1,1,0,115.8Zm-328.3-75.8a17.9,17.9,0,1,0,0,35.8h328.3a17.9,17.9,0,1,0,0-35.8Z"/><path class="cls-3" d="M1629.6,444.9h-69.3a20,20,0,0,1,0-40h69.3a20,20,0,0,1,0,40Z"/><path class="cls-3" d="M1629.6,616.8h-69.3a20,20,0,0,1,0-40h69.3a20,20,0,0,1,0,40Z"/><path class="cls-3" d="M1629.6,788.7h-69.3a20,20,0,0,1,0-40h69.3a20,20,0,0,1,0,40Z"/><path class="cls-3" d="M1629.6,960.6h-69.3a20,20,0,0,1,0-40h69.3a20,20,0,0,1,0,40Z"/><path class="cls-3" d="M1629.6,1132.5h-69.3a20,20,0,0,1,0-40h69.3a20,20,0,0,1,0,40Z"/><path class="cls-3" d="M1629.6,1304.3h-69.3a20,20,0,0,1,0-40h69.3a20,20,0,0,1,0,40Z"/><path class="cls-3" d="M1629.6,1476.2h-69.3a20,20,0,0,1,0-40h69.3a20,20,0,0,1,0,40Z"/><path class="cls-10" d="M301.6,1732.6H219.5a19.9,19.9,0,0,1-20-20V482.6a20,20,0,0,1,20-20h82.1a20.1,20.1,0,0,1,20,20v1230A20,20,0,0,1,301.6,1732.6Z"/><path class="cls-10" d="M1837.9,1732.6h-82.1a20,20,0,0,1-20-20V482.6a20.1,20.1,0,0,1,20-20h82.1a20,20,0,0,1,20,20v1230A19.9,19.9,0,0,1,1837.9,1732.6Z"/><path class="cls-3" d="M258.6,1666.1a17.9,17.9,0,0,1-17.9-17.9V547a17.9,17.9,0,0,1,17.9-17.9h63V482.6a20.1,20.1,0,0,0-20-20H219.5a20,20,0,0,0-20,20v1230a19.9,19.9,0,0,0,20,20h82.1a20,20,0,0,0,20-20v-46.5Z"/><path class="cls-3" d="M1799.9,1666.1a17.9,17.9,0,0,1-17.9-17.9V547a17.9,17.9,0,0,1,17.9-17.9h58V482.6a20,20,0,0,0-20-20h-82.1a20.1,20.1,0,0,0-20,20v1230a20,20,0,0,0,20,20h82.1a19.9,19.9,0,0,0,20-20v-46.5Z"/><path class="cls-10" d="M1911.2,502.6H132.1a19.9,19.9,0,0,1-20-20V400.5a20,20,0,0,1,20-20H1911.2a20.1,20.1,0,0,1,20,20v82.1A20,20,0,0,1,1911.2,502.6Z"/><path class="cls-3" d="M203.1,462.6a20,20,0,0,1-20-20V380.5h-51a20,20,0,0,0-20,20v82.1a19.9,19.9,0,0,0,20,20H1911.2a20,20,0,0,0,20-20v-20Z"/><path class="cls-10" d="M1917.9,1861.3H139.5a20,20,0,0,1-20-20V1712.6a20,20,0,0,1,20-20H1917.9a20,20,0,0,1,20,20v128.7A20,20,0,0,1,1917.9,1861.3Z"/><path class="cls-3" d="M227.5,1809.9a20.1,20.1,0,0,1-20-20v-97.3h-68a20,20,0,0,0-20,20v128.7a20,20,0,0,0,20,20H1917.9a20,20,0,0,0,20-20v-31.4Z"/><rect class="cls-11" height="71.07" rx="35.5" ry="35.5" width="1225.2" x="550.5" y="1692.6"/><rect class="cls-11" height="718.09" rx="23.6" ry="23.6" width="47.1" x="1810.8" y="738.1"/><rect class="cls-11" height="758.78" rx="23.5" ry="23.5" width="47.1" x="274.5" y="822.2"/><rect class="cls-11" height="61.06" rx="30.5" ry="30.5" width="1214.5" x="479.7" y="380.5"/><circle class="cls-9" cx="1508.8" cy="1332.3" r="19.3"/><circle class="cls-9" cx="1475" cy="1147.1" r="14.6"/><circle class="cls-9" cx="1556.8" cy="1042" r="28.7"/><circle class="cls-12" cx="1515.4" cy="981" r="12.7"/><circle class="cls-12" cx="1551.6" cy="1213.7" r="23.5"/><circle class="cls-12" cx="1476.3" cy="1235.2" r="8.1"/><circle class="cls-12" cx="1472.4" cy="1454.4" r="12.1"/></svg>